<?xml version="1.0" encoding="utf-8"?>
<!-- Generator: Adobe Illustrator 21.0.0, SVG Export Plug-In . SVG Version: 6.00 Build 0)  -->
<svg version="1.1" id="Calque_1" xmlns="http://www.w3.org/2000/svg" xmlns:xlink="http://www.w3.org/1999/xlink" x="0px" y="0px"
	 viewBox="0 0 384 444.1" style="enable-background:new 0 0 384 444.1;" xml:space="preserve">
<style type="text/css">
	.st0{fill:#FFFFFF;}
	.st1{fill:none;stroke:#000000;stroke-width:0.75;stroke-miterlimit:10;}
	.st2{fill:none;stroke:#000000;stroke-width:5;stroke-miterlimit:10;}
	.st3{fill:none;stroke:#000000;stroke-width:5;stroke-linecap:round;stroke-miterlimit:10;}
	.st4{fill:none;stroke:#000000;stroke-width:5;stroke-linejoin:round;}
	.st5{fill:#FFFFFF;stroke:#000000;stroke-width:2;stroke-miterlimit:10;}
	.st6{stroke:#000000;stroke-width:2;stroke-miterlimit:10;}
</style>
<title>logo</title>
<g id="_Groupe_">
	<path class="st0" d="M95.1,14v17.3c-5.8,6-25.1,9.4-39.4,0V12.9C68.1,20,82.5,20.8,95.1,14z"/>
	<path class="st0" d="M92.8,36.3c0.3-0.3,1.8-0.6,1.5,0c-3.5,3.9-10.5,4.6-15.4,5.2c-7.9,0.6-16.3-0.6-23.1-5.2
		c-0.3-0.6,1.2-1.3,1.5-0.9c5.4,4.1,12,5.2,18.6,5.2C81.1,40.5,89.3,40.2,92.8,36.3z"/>
	<path d="M94.3,36.3c0.3-0.6-1.2-0.3-1.5,0c-3.7,3.9-11.7,4.2-16.9,4.2c-6.7,0-13.2-1.3-18.6-5.2c-0.3-0.3-1.8,0.3-1.5,0.9
		c6.9,4.6,15.4,5.8,23.1,5.2C83.8,40.9,90.8,40.2,94.3,36.3z M96.2,30.2c0,2.8-0.3,5.2-0.3,8c-0.5,15.5-1.2,31.1-1.5,46.6h-0.8
		c0-0.6-1.1-0.8-1.6-0.2c-8.7,8.3-27,7.7-35.5-0.6c-0.5-0.5-1.6-0.2-1.6,0.5h-0.7c0.3-6,0.4-11.9,0.4-17.9c0-8,0.1-15.8,0.1-23.7
		c0-3.9,0-7.8-0.1-11.9c0.4,0.3,0.7,0.5,1.1,0.8c14.3,9.4,33.6,5.8,39.4,0C95.4,31.2,95.8,30.7,96.2,30.2L96.2,30.2z"/>
	<path d="M95.9,10.4c-0.1,2.7-0.1,2.8-0.1,3.1c0,0,0,0.3-0.3,0.3c-0.1,0.1-0.3,0.2-0.4,0.2c-12.6,6.7-27,5.8-39.4-1.3
		c-0.1-0.2-0.3-0.2-0.4-0.3H55V9.3h1.5c6,4.9,14.7,5.5,22.3,5.2c5.2-0.3,11.7-0.9,15.9-4.2v-0.2L95.9,10.4z"/>
	<path d="M105.2,235.7L105.2,235.7l1.9,0.5l-2.9,21.2c-1.5,11.1-2,22.7-9.4,31.7c-13.2,16.3-42.7,16.3-53.3-2.8
		c-4.8-8.6-4.8-17.9-5.4-27.3c-2-30.6-3.8-61-5.7-91.4H31c1.2,18.2,2.5,35.9,3.9,54.1c0.5,7.7,1.2,13.8,6.9,19.6
		c7.2,7.7,18.1,11.9,28.5,12.2c13.9,0.6,25.8-6.4,34.2-17.6C105.1,236,105.1,236,105.2,235.7L105.2,235.7z"/>
	<path d="M114.6,129.9c3.3,13.5,1,28.9-0.3,42.7c-1.8,21.2-4.2,42.3-7.1,63.5l-1.9-0.3v-0.3c2.5-21.5,4.8-43,6.9-64.8
		c0-0.9-1.2-0.3-1.5,0c-12.9,15.1-31.6,20.5-50.6,15.7c-9.4-2.5-25-8.6-27.3-19.3c0-0.6-1.5-0.3-1.5,0.3h-0.5l-1.2-19.7
		c-0.8-7,0.1-14,2.7-20.6c3.7-8.8,11.8-12.9,17.3-20.6c3.3-4.6,3.9-10.2,4.2-15.7l0.4-6.6h0.7c0,0.2,0,0.3,0.1,0.5
		c9.4,9.3,29.2,9.3,38.5,0.3c0.1-0.1,0.2-0.3,0.1-0.5h0.8v1.3c-0.3,9.9-0.5,18.5,7.2,25.3C107.9,116.8,112.4,121.6,114.6,129.9z
		 M55.9,119.7c6-8,9.6-11.1,9.9-21.5c-2.3-0.3-4.5-0.9-6.7-1.6c-0.3,5.2-1,10.5-3.7,15.4c-1.8,3.6-4.5,6.4-6.9,9.9
		c-8.4,12.2-9.6,25.7-9.9,40.5c0,0.9,5.2,4.6,6.7,4.6C45.4,152.1,46.6,132.5,55.9,119.7z"/>
	<path class="st0" d="M110.6,170.7c0.3-0.3,1.5-0.9,1.5,0c-2,21.8-4.5,43.3-6.9,64.8c0,0.3,0,0.3-0.3,0.3
		c-8.4,11.1-20.4,18.2-34.2,17.6c-10.6-0.3-21.3-4.5-28.5-12.2c-5.7-5.8-6.4-11.9-6.9-19.6c-1.5-18.2-2.7-35.9-3.9-54.1
		c0-0.6,1.5-0.9,1.5-0.3c2.5,10.7,18.1,16.9,27.3,19.3C79.1,191.4,97.7,185.8,110.6,170.7z"/>
	<path d="M95.9,9.5v0.9h-1.2c0-0.2-1.2-0.2-1.5,0.2c-4.8,3.9-13.6,3.9-19.3,3.8c-5.4,0-11.4-1.3-15.9-4.9c-0.3-0.3-1.5,0.2-1.5,0.3
		h-1.5c0.1-2.3,0.5-4.9,2-6.1c2.5-3.4,14.4-3.4,16.6-3.4c3-0.3,15.9-0.9,19.8,2.8C95.7,3.8,95.9,6.7,95.9,9.5z M85.6,5.1L85.6,5.1
		c-1.5-3.8-20.1-3.4-20.1,0.2s18.3,4.1,20.1,0L85.6,5.1L85.6,5.1z"/>
	<path class="st0" d="M94.7,10.4L94.7,10.4c-4.2,3.4-10.9,4.1-16,4.4c-7.5,0.3-16.3-0.3-22.3-5.2l0,0c0-0.2,1.2-0.6,1.5-0.3
		c4.5,3.6,10.6,4.9,15.9,4.9c5.7,0.3,14.4,0.3,19.3-3.8C93.5,10.3,94.7,10.1,94.7,10.4z"/>
	<path class="st0" d="M93.6,84.8c0,0.2,0,0.3-0.1,0.5c-9.4,8.9-29.2,8.9-38.5-0.3c-0.1-0.1-0.2-0.3-0.1-0.5c0.2-0.5,0.7-0.8,1.2-0.7
		c0.1,0,0.3,0.1,0.4,0.2c8.4,8.3,26.8,8.9,35.5,0.6C92.4,84,93.6,84.2,93.6,84.8z"/>
	<path class="st0" d="M85.6,5.1L85.6,5.1c-1.8,4.1-20.1,3.8-20.1,0.2S84.1,1.3,85.6,5L85.6,5.1L85.6,5.1z"/>
	<path class="st0" d="M65.8,98.3c-0.3,10.5-3.9,13.5-9.9,21.5c-9.4,12.6-10.6,32.3-10.6,47.4c-1.5,0-6.7-3.8-6.7-4.6
		c0.3-14.7,1.5-28.2,9.9-40.5c2.5-3.4,5.2-6.1,6.9-9.9c2.7-4.9,3.3-10.2,3.7-15.4C61.3,97.5,63.5,97.9,65.8,98.3z"/>
	<polyline class="st1" points="55.7,12.3 55.7,12.9 55.7,31.5 55.7,33.5 	"/>
	<polyline class="st1" points="95.1,13.1 95.1,14 95.1,31.5 95.1,33.5 	"/>
</g>
<g id="_Groupe_2">
	<polygon class="st0" points="380.5,259.9 381.5,286.9 169.5,441.9 168.5,408.9 	"/>
	<polygon class="st0" points="168.5,408.9 169.5,441.9 2.5,357.9 2.5,325.9 	"/>
	<path class="st0" d="M338.5,221.9c-1.9,14.6,14.2,33.3,42,38l-212,149l-166-83l225-121c33.1,16.8,72.8,12.9,102-10l0.2,0.3
		c3.8-3.5,8.3-6.3,13.1-8.1c3.1-1.1,14.2-5.2,16.2,0.5c1.2,3.4-1.1,9.6-5.3,15.5l-0.2-0.2C349.1,205.6,339.8,212.1,338.5,221.9z"/>
	<line class="st2" x1="168.5" y1="408.9" x2="2.5" y2="325.9"/>
	<line class="st2" x1="168.5" y1="408.9" x2="380.5" y2="259.9"/>
	<line class="st2" x1="168.5" y1="408.9" x2="169.5" y2="441.9"/>
	<line class="st2" x1="169.5" y1="441.9" x2="381.5" y2="286.9"/>
	<line class="st2" x1="380.5" y1="259.9" x2="381.5" y2="286.9"/>
	<line class="st2" x1="169.5" y1="441.9" x2="2.5" y2="357.9"/>
	<line class="st2" x1="2.5" y1="325.9" x2="2.5" y2="357.9"/>
	<line class="st2" x1="2.5" y1="325.9" x2="227.5" y2="204.9"/>
	<path class="st3" d="M380.5,259.9c-27.8-4.8-43.9-23.4-42-38c1.3-9.8,10.6-16.3,15-19"/>
	<path class="st3" d="M227.5,204.9c33.1,16.8,72.8,12.9,102-10"/>
	<path class="st4" d="M329.4,195.5l0.3-0.3c3.8-3.5,8.3-6.3,13.1-8.1c3.1-1.1,14.2-5.2,16.2,0.5c1.2,3.4-1.1,9.6-5.3,15.5
		c-0.4,0.6-0.8,1.2-1.3,1.7"/>
</g>
<g id="_Groupe_3">
	
		<ellipse transform="matrix(0.9996 -2.998651e-02 2.998651e-02 0.9996 -6.4018 8.4627)" class="st0" cx="279" cy="217.7" rx="95.9" ry="80.1"/>
	
		<ellipse transform="matrix(0.9996 -2.774717e-02 2.774717e-02 0.9996 -5.9647 7.8001)" class="st2" cx="278.1" cy="218.8" rx="95.9" ry="80.1"/>
</g>
<g id="_Groupe_4">
	<ellipse cx="312.9" cy="216.5" rx="1.7" ry="1.8"/>
	<path class="st0" d="M248,144.4c49.7,0,90,37.9,90,84.8S297.7,314,248,314s-90-37.9-90-84.8S198.3,144.4,248,144.4z M314.6,216.5
		c0-1-0.7-1.8-1.7-1.8c-0.9,0-1.7,0.8-1.7,1.7c0,0,0,0.1,0,0.1c0,1,0.7,1.8,1.7,1.8C313.8,218.3,314.6,217.5,314.6,216.5
		C314.6,216.6,314.6,216.5,314.6,216.5L314.6,216.5z M312.9,196.2c0-4.2-1-7.7-2.2-7.7s-2.2,3.4-2.2,7.7s1,7.7,2.2,7.7
		S312.9,200.5,312.9,196.2L312.9,196.2z M306,255.7c-0.1-2.6-2.3-4.7-5-4.6c-2.6,0.1-4.7,2.3-4.6,5c0.1,2.6,2.2,4.6,4.8,4.6
		c2.7,0,4.8-2.2,4.8-4.9C306,255.8,306,255.8,306,255.7z M293,223.7c0-1-2.1-1.8-4.8-1.8s-4.8,0.8-4.8,1.8s2.1,1.8,4.8,1.8
		S293,224.7,293,223.7z M287.8,184.1c-0.1-2.4-2.1-4.2-4.5-4.1s-4.2,2.1-4.1,4.5c0.1,2.3,2,4.1,4.3,4.1
		C285.9,188.6,287.8,186.6,287.8,184.1C287.8,184.1,287.8,184.1,287.8,184.1L287.8,184.1z M283.5,284.1c0-3-1-5.4-2.2-5.4
		s-2.2,2.4-2.2,5.4s1,5.4,2.2,5.4S283.5,287.1,283.5,284.1L283.5,284.1z M274,299.5c0-1.5-3.1-2.7-6.9-2.7s-6.9,1.2-6.9,2.7
		s3.1,2.7,6.9,2.7S274,301,274,299.5L274,299.5z M267,257.6c-0.2-3.6-3.2-6.4-6.8-6.2s-6.4,3.2-6.2,6.8c0.2,3.5,3,6.2,6.5,6.2
		C264.2,264.3,267.1,261.3,267,257.6L267,257.6z M260.1,170.5c0.1-3.4-2.6-6.2-6-6.3c0,0,0,0-0.1,0c-3.4,0.1-6.1,2.9-6.1,6.3
		c-0.1,3.4,2.6,6.2,6,6.3c0,0,0,0,0.1,0c3.4,0,6.1-2.7,6.1-6.1C260.1,170.6,260.1,170.6,260.1,170.5L260.1,170.5z M254.9,218.3
		c0.1-1.9-1.5-3.5-3.4-3.6c0,0-0.1,0-0.1,0c-2,0-3.5,1.6-3.5,3.6c0,1.9,1.6,3.5,3.5,3.5S254.9,220.3,254.9,218.3z M234.2,211.1
		c0-4-1.4-7.2-3-7.2s-3,3.2-3,7.2s1.4,7.2,3,7.2S234.2,215.1,234.2,211.1L234.2,211.1z M234.2,281c0-1.7-1.3-3.1-3-3.2
		c-1.8,0.1-3.1,1.7-2.9,3.5c0.1,1.6,1.4,2.8,2.9,2.9C232.9,284.1,234.2,282.7,234.2,281L234.2,281z M231.6,176.4
		c0-1.7-1.3-3.1-3-3.2c-1.7,0.1-3,1.5-3,3.2c0,1.7,1.3,3,3,3S231.6,178.1,231.6,176.4z M225.5,241.8c0-5-1.4-9-3-9s-3,4-3,9
		s1.4,9,3,9S225.5,246.7,225.5,241.8L225.5,241.8z M203,198.5c-0.1-2.9-2.5-5.1-5.4-5s-5.1,2.5-5,5.4c0.1,2.8,2.4,5,5.2,5
		C200.7,203.9,203,201.5,203,198.5C203,198.6,203,198.5,203,198.5L203,198.5z M203,271.5c-0.2-3.8-3.4-6.8-7.2-6.6
		c-3.8,0.2-6.8,3.4-6.6,7.2c0.2,3.7,3.2,6.6,6.9,6.6c3.9-0.1,7-3.2,6.9-7.1C203,271.6,203,271.5,203,271.5L203,271.5z M199.5,239.1
		c0.1-1.9-1.5-3.5-3.4-3.6c0,0-0.1,0-0.1,0c-2,0-3.5,1.6-3.5,3.6c0,1.9,1.6,3.5,3.5,3.5S199.5,241.1,199.5,239.1z M186.6,218.3
		c0-2-2.9-3.6-6.5-3.6s-6.5,1.6-6.5,3.6s2.9,3.6,6.5,3.6S186.6,220.3,186.6,218.3L186.6,218.3z"/>
	<ellipse class="st0" cx="310.7" cy="196.2" rx="2.2" ry="7.7"/>
	<ellipse class="st0" cx="288.2" cy="223.7" rx="4.8" ry="1.8"/>
	<ellipse class="st0" cx="283.5" cy="184.1" rx="4.3" ry="4.5"/>
	<ellipse cx="281.3" cy="284.1" rx="2.2" ry="5.4"/>
	<ellipse cx="260.5" cy="257.6" rx="6.5" ry="6.8"/>
	<ellipse cx="231.1" cy="211.1" rx="3" ry="7.2"/>
	<ellipse cx="196.1" cy="271.5" rx="6.9" ry="7.2"/>
	<ellipse cx="180.1" cy="218.3" rx="6.5" ry="3.6"/>
	<ellipse class="st2" cx="248" cy="229.2" rx="90" ry="84.8"/>
	<ellipse class="st2" cx="228.5" cy="176.4" rx="3" ry="3.2"/>
	<ellipse class="st2" cx="301.2" cy="255.7" rx="4.8" ry="5"/>
	<ellipse class="st2" cx="196.1" cy="239.1" rx="3.5" ry="3.6"/>
	<ellipse class="st2" cx="231.1" cy="281" rx="3" ry="3.2"/>
	<ellipse class="st2" cx="283.5" cy="184.1" rx="4.3" ry="4.5"/>
	<ellipse class="st2" cx="312.9" cy="216.5" rx="1.7" ry="1.8"/>
	<ellipse class="st2" cx="197.8" cy="198.5" rx="5.2" ry="5.4"/>
	<ellipse class="st2" cx="254.1" cy="170.5" rx="6.1" ry="6.3"/>
	<ellipse class="st2" cx="260.5" cy="257.6" rx="6.5" ry="6.8"/>
	<ellipse class="st2" cx="196.1" cy="271.5" rx="6.9" ry="7.2"/>
	<ellipse class="st2" cx="180.1" cy="218.3" rx="6.5" ry="3.6"/>
	<ellipse class="st2" cx="288.2" cy="223.7" rx="4.8" ry="1.8"/>
	<ellipse class="st2" cx="231.1" cy="211.1" rx="3" ry="7.2"/>
	<ellipse class="st2" cx="281.3" cy="284.1" rx="2.2" ry="5.4"/>
	<ellipse class="st2" cx="222.5" cy="241.8" rx="3" ry="9"/>
	<ellipse class="st2" cx="267" cy="299.5" rx="6.9" ry="2.7"/>
</g>
<g id="_Groupe_5">
	<path class="st0" d="M286.5,265.9c4.5,14.2,5.9,29.2,4,44c-3.5,5.1-7.9,9.5-13,13c-15.3,10.4-31.9,8.7-37,8
		c6.1-25.1,1.4-51.6-13-73c2.7-6,6.4-11.4,11-16c7.2-7,16.2-11.9,26-14C274.5,238.8,282,251.8,286.5,265.9z"/>
	<path class="st0" d="M264.5,227.9c-9.8,2.1-18.8,7-26,14c-4.6,4.6-8.3,10-11,16c-28.8,0.3-57.5,2.3-86,6c-30,3.8-59.7,9.5-89,17
		c4.7-5.6,10.1-10.7,16-15c6.2-4.5,12.9-8.2,20-11c23.9-9.8,51.7-14.1,65-16c11.8-1.7,24.9-3.3,53-6
		C230.7,230.6,250.7,229,264.5,227.9z"/>
	<path class="st0" d="M241.5,291.9c2.5,12.9,2.1,26.2-1,39c-23,12.3-37.7,12-47,9c-5.4-1.7-14.2-5.9-22-2c-1.5,0.7-2,1.3-10,9
		c-10.1,9.7-11,10.4-13,11c-6.6,1.8-13.1-1.8-17-4c-5.5-3.1-4.4-4.4-11-9c-9.5-6.7-16.1-7.1-17-12c-0.5-3,1.6-4.2,1-6
		c-1-2.9-8.8-4.7-38,0c-12.1-12-17.3-29.3-14-46c29.3-7.5,59-13.2,89-17c28.5-3.7,57.2-5.7,86-6
		C234.4,268.2,239.2,279.7,241.5,291.9z M198.5,300.9c0-7.7-6.3-14-14-14s-14,6.3-14,14s6.3,14,14,14l0,0
		C192.2,314.9,198.5,308.6,198.5,300.9z M123.5,293.4c0-4.1-3.4-7.5-7.5-7.5s-7.5,3.4-7.5,7.5s3.4,7.5,7.5,7.5l0,0
		C120.1,300.9,123.5,297.5,123.5,293.4z"/>
	<path d="M184.5,286.9c7.7,0,14,6.3,14,14s-6.3,14-14,14s-14-6.3-14-14S176.8,286.9,184.5,286.9L184.5,286.9z M194.5,300.9
		c0-5.5-4.5-10-10-10s-10,4.5-10,10s4.5,10,10,10S194.5,306.4,194.5,300.9z"/>
	<path class="st2" d="M227.5,257.9c-28.8,0.3-57.5,2.3-86,6c-30,3.8-59.7,9.5-89,17"/>
	<path class="st2" d="M240.5,330.9c6.1-25.1,1.4-51.6-13-73"/>
	<path class="st2" d="M290.5,309.9c-3.5,5.1-7.9,9.5-13,13c-15.3,10.4-31.9,8.7-37,8"/>
	<path class="st2" d="M264.5,227.9c10,10.9,17.5,23.9,22,38c4.5,14.2,5.9,29.2,4,44"/>
	<path class="st2" d="M264.5,227.9c-9.8,2.1-18.8,7-26,14c-4.6,4.6-8.3,10-11,16"/>
	<path class="st2" d="M264.5,227.9c-13.8,1.1-33.8,2.7-58,5c-28.1,2.7-41.2,4.3-53,6c-13.3,1.9-41.1,6.2-65,16
		c-7.1,2.8-13.8,6.5-20,11c-5.9,4.3-11.3,9.4-16,15"/>
	<path class="st2" d="M240.5,330.9c-23,12.3-37.7,12-47,9c-5.4-1.7-14.2-5.9-22-2c-1.5,0.7-2,1.3-10,9c-10.1,9.7-11,10.4-13,11
		c-6.6,1.8-13.1-1.8-17-4c-5.5-3.1-4.4-4.4-11-9c-9.5-6.7-16.1-7.1-17-12c-0.5-3,1.6-4.2,1-6c-1-2.9-8.8-4.7-38,0"/>
	<path class="st2" d="M52.5,280.9c-3.3,16.7,1.9,34,14,46"/>
	<circle class="st2" cx="116" cy="293.4" r="7.5"/>
	<circle class="st2" cx="184.5" cy="300.9" r="14"/>
	<circle class="st2" cx="184.5" cy="300.9" r="10"/>
</g>
<ellipse class="st5" cx="302.5" cy="150.9" rx="6.5" ry="3.5"/>
<ellipse class="st5" cx="340.5" cy="181.9" rx="3.5" ry="2.5"/>
<ellipse class="st6" cx="326.5" cy="163.4" rx="2.5" ry="1"/>
<circle class="st6" cx="350" cy="219.4" r="3"/>
<ellipse class="st6" cx="344" cy="259.4" rx="3" ry="5"/>
</svg>
